<svg width="0" height="0" class="hidden">
   <symbol xmlns="http://www.w3.org/2000/svg" fill="none" viewBox="0 0 20 20" id="Logout">
    <path stroke="#fff" stroke-linecap="round" stroke-linejoin="round" stroke-width="1.5" d="M18.16 10.1H8.126M15.721 7.67l2.44 2.43-2.44 2.43M13.634 6.358c-.275-2.983-1.392-4.066-5.833-4.066-5.918 0-5.918 1.925-5.918 7.708s0 7.708 5.918 7.708c4.441 0 5.558-1.083 5.833-4.066"></path>
  </symbol>

   <symbol xmlns="http://www.w3.org/2000/svg" fill="none" viewBox="0 0 16 16" id="arrow-down">
    <path stroke="#3D3D3D" stroke-linecap="round" stroke-linejoin="round" stroke-width="1.5" d="M12.667 5.667 8 10.333 3.333 5.667"></path>
  </symbol>

  <symbol xmlns="http://www.w3.org/2000/svg" fill="none"  viewBox="0 0 24 24" id="shopping-cart">
    <path stroke-linecap="round" stroke-linejoin="round" stroke-width="1.5" d="m23.433,4.915c-.477-.582-1.182-.915-1.934-.915H4.49l-.256-1.843c-.17-1.229-1.234-2.157-2.476-2.157H.5C.224,0,0,.224,0,.5s.224.5.5.5h1.259c.745,0,1.383.556,1.485,1.294l1.781,12.825c.308,2.212,2.225,3.881,4.457,3.881h10.018c.276,0,.5-.224.5-.5s-.224-.5-.5-.5h-10.018c-1.73,0-3.214-1.289-3.462-3h12.64c2.138,0,3.993-1.521,4.412-3.617l.879-4.393c.147-.738-.042-1.494-.519-2.075Zm-.462,1.879l-.879,4.393c-.326,1.63-1.77,2.813-3.432,2.813H5.879l-1.25-9h16.87c.451,0,.874.2,1.16.549.286.349.399.803.312,1.245Zm-15.971,13.206c-1.103,0-2,.897-2,2s.897,2,2,2,2-.897,2-2-.897-2-2-2Zm0,3c-.552,0-1-.449-1-1s.448-1,1-1,1,.449,1,1-.448,1-1,1Zm10-3c-1.103,0-2,.897-2,2s.897,2,2,2,2-.897,2-2-.897-2-2-2Zm0,3c-.552,0-1-.449-1-1s.448-1,1-1,1,.449,1,1-.448,1-1,1Z"></path>
  </symbol>

  <symbol xmlns="http://www.w3.org/2000/svg" fill="#none" viewBox="0 0 24 24"  id="heart">
    <path stroke-linecap="round" stroke-linejoin="round" stroke-width="1.5" d="M17.75,1c-2.504,0-4.777,1.851-5.75,4.354-.973-2.504-3.246-4.354-5.75-4.354C2.804,1,0,3.804,0,7.25c0,6.76,9.754,14.07,11.709,15.466l.291,.208,.291-.208c1.956-1.396,11.709-8.707,11.709-15.466,0-3.446-2.804-6.25-6.25-6.25Zm-5.75,20.693C6.859,17.958,1,12.022,1,7.25,1,4.355,3.355,2,6.25,2c2.748,0,5.25,2.86,5.25,6h1c0-3.14,2.502-6,5.25-6,2.895,0,5.25,2.355,5.25,5.25,0,4.772-5.859,10.708-11,14.443Z"></path>
  </symbol>

   <symbol xmlns="http://www.w3.org/2000/svg" fill="#none" viewBox="0 0 24 24" id="search">
    <path stroke-linecap="round" stroke-linejoin="round" stroke-width="1.5" d="M23.707,22.293l-5.969-5.969a10.016,10.016,0,1,0-1.414,1.414l5.969,5.969a1,1,0,0,0,1.414-1.414ZM10,18a8,8,0,1,1,8-8A8.009,8.009,0,0,1,10,18Z"></path>
  </symbol>

  <symbol xmlns="http://www.w3.org/2000/svg" fill="none" viewBox="0 0 18 18" id="small-arrow-right">
    <path  stroke-linecap="round" stroke-linejoin="round" stroke-width="1.5" d="M6.375 3.75s5.25 3.108 5.25 5.25c0 2.141-5.25 5.25-5.25 5.25"></path>
  </symbol>

  <symbol xmlns="http://www.w3.org/2000/svg" fill="none" viewBox="0 0 18 18" id="arrow-right-white">
    <path stroke="#fff" stroke-linecap="round" stroke-linejoin="round" stroke-width="1.5" d="M14.813 8.794H3.563M10.275 4.276s4.537 2.446 4.537 4.517c0 2.073-4.537 4.52-4.537 4.52"></path>
  </symbol>

   <symbol xmlns="http://www.w3.org/2000/svg" fill="none" viewBox="0 0 16 16" id="arrow-right2">
    <path  d="M2.667 7.817a.5.5 0 0 1 .432-.495l.068-.005h10a.5.5 0 0 1 .068.996l-.068.004h-10a.5.5 0 0 1-.5-.5Z"></path>
    <path  d="M8.78 4.155a.5.5 0 0 1 .65-.757l.056.049 4.034 4.016a.5.5 0 0 1 .048.652l-.048.056-4.034 4.017a.5.5 0 0 1-.754-.653l.049-.056 3.677-3.662-3.677-3.662Z"></path>
  </symbol>

  
  <symbol xmlns="http://www.w3.org/2000/svg" fill="none" viewBox="0 0 20 20" id="location">
    <path  stroke-linecap="round" stroke-linejoin="round" stroke-width="1.5" d="M12.092 8.925a2.083 2.083 0 1 0-4.167 0 2.083 2.083 0 0 0 4.167 0Z" clip-rule="evenodd"></path>
    <path  stroke-linecap="round" stroke-linejoin="round" stroke-width="1.5" d="M10 17.5c-2.415 0-6.25-4.201-6.25-8.668C3.75 5.335 6.548 2.5 10 2.5s6.25 2.835 6.25 6.332c0 4.467-3.835 8.668-6.25 8.668Z" clip-rule="evenodd"></path>
  </symbol>

  <symbol xmlns="http://www.w3.org/2000/svg" fill="none" viewBox="0 0 20 20" id="mail">
    <path stroke="#46A358" stroke-linecap="round" stroke-linejoin="round" stroke-width="1.5" d="M14.62 7.516s-2.674 3.21-4.63 3.21c-1.957 0-4.662-3.21-4.662-3.21"></path>
    <path stroke="#46A358" stroke-linecap="round" stroke-linejoin="round" stroke-width="1.5" d="M2.043 9.974c0-5.698 1.985-7.597 7.937-7.597s7.936 1.899 7.936 7.597-1.984 7.597-7.936 7.597-7.937-1.9-7.937-7.597Z" clip-rule="evenodd"></path>
  </symbol>

   <symbol fill="none" xmlns="http://www.w3.org/2000/svg" viewBox="0 0 19 19" id="Calling">
    <path d="M11.9604 1.29175C15.0446 1.63425 17.4813 4.06758 17.8279 7.15175" stroke="#46A358" stroke-width="1.5" stroke-linecap="round" stroke-linejoin="round"></path>
    <path d="M11.9604 4.24426C13.4363 4.53093 14.5896 5.6851 14.8771 7.16093" stroke="#46A358" stroke-width="1.5" stroke-linecap="round" stroke-linejoin="round"></path>
    <path fill-rule="evenodd" clip-rule="evenodd" d="M6.41715 12.5825C0.668834 6.83352 1.48623 4.20096 2.0922 3.35263C2.17005 3.21552 4.08881 0.343233 6.14557 2.02839C11.2508 6.23288 4.78767 5.63843 9.07458 9.92607C13.3624 14.2128 12.767 7.74996 16.9717 12.8541C18.6569 14.9117 15.7845 16.8303 15.6483 16.9073C14.7999 17.5141 12.1664 18.3315 6.41715 12.5825Z" stroke="#46A358" stroke-width="1.5" stroke-linecap="round" stroke-linejoin="round"></path>
  </symbol>

  <symbol xmlns="http://www.w3.org/2000/svg" fill="none" viewBox="0 0 8 16" id="facebook">
    <path fill="#46A358" fill-opacity=".6" d="M2 5.333H0V8h2v8h3.333V8h2.4L8 5.333H5.333V4.2c0-.6.134-.867.734-.867H8V0H5.467C3.067 0 2 1.067 2 3.067v2.266Z"></path>
  </symbol>

  <symbol fill="none" xmlns="http://www.w3.org/2000/svg" viewBox="0 0 16 16" id="Instagram">
    <path d="M8 1.46667C10.1333 1.46667 10.4 1.46667 11.2667 1.53333C13.4667 1.6 14.4667 2.66667 14.5333 4.8C14.6 5.66667 14.6 5.86667 14.6 8C14.6 10.1333 14.6 10.4 14.5333 11.2C14.4667 13.3333 13.4 14.4 11.2667 14.4667C10.4 14.5333 10.2 14.5333 8 14.5333C5.86667 14.5333 5.6 14.5333 4.8 14.4667C2.6 14.4 1.6 13.3333 1.53333 11.2C1.46667 10.3333 1.46667 10.1333 1.46667 8C1.46667 5.86667 1.46667 5.6 1.53333 4.8C1.6 2.66667 2.66667 1.6 4.8 1.53333C5.6 1.46667 5.86667 1.46667 8 1.46667ZM8 0C5.8 0 5.53333 0 4.73333 0.0666667C1.8 0.2 0.2 1.8 0.0666667 4.73333C0 5.53333 0 5.8 0 8C0 10.2 0 10.4667 0.0666667 11.2667C0.2 14.2 1.8 15.8 4.73333 15.9333C5.53333 16 5.8 16 8 16C10.2 16 10.4667 16 11.2667 15.9333C14.2 15.8 15.8 14.2 15.9333 11.2667C16 10.4667 16 10.2 16 8C16 5.8 16 5.53333 15.9333 4.73333C15.8 1.8 14.2 0.2 11.2667 0.0666667C10.4667 0 10.2 0 8 0ZM8 3.86667C5.73333 3.86667 3.86667 5.73333 3.86667 8C3.86667 10.2667 5.73333 12.1333 8 12.1333C10.2667 12.1333 12.1333 10.2667 12.1333 8C12.1333 5.73333 10.2667 3.86667 8 3.86667ZM8 10.6667C6.53333 10.6667 5.33333 9.46667 5.33333 8C5.33333 6.53333 6.53333 5.33333 8 5.33333C9.46667 5.33333 10.6667 6.53333 10.6667 8C10.6667 9.46667 9.46667 10.6667 8 10.6667ZM12.2667 2.8C11.7333 2.8 11.3333 3.2 11.3333 3.73333C11.3333 4.26667 11.7333 4.66667 12.2667 4.66667C12.8 4.66667 13.2 4.26667 13.2 3.73333C13.2 3.2 12.8 2.8 12.2667 2.8Z" fill="#46A358" fill-opacity="0.6"></path>
  </symbol>
  
  <symbol xmlns="http://www.w3.org/2000/svg" fill="none" viewBox="0 0 16 13" id="Twitter">
    <path fill="#46A358" fill-opacity=".6" d="M5.032 13.004c6.038 0 9.34-5.003 9.34-9.34 0-.143-.003-.284-.01-.425A6.681 6.681 0 0 0 16 1.54a6.549 6.549 0 0 1-1.885.517A3.295 3.295 0 0 0 15.559.24a6.58 6.58 0 0 1-2.085.797A3.283 3.283 0 0 0 7.88 4.031 9.32 9.32 0 0 1 1.115.6 3.28 3.28 0 0 0 2.13 4.983a3.26 3.26 0 0 1-1.487-.41v.042a3.284 3.284 0 0 0 2.633 3.218 3.286 3.286 0 0 1-1.483.056 3.287 3.287 0 0 0 3.067 2.28A6.587 6.587 0 0 1 0 11.53a9.293 9.293 0 0 0 5.032 1.475Z"></path>
  </symbol>

  <symbol xmlns="http://www.w3.org/2000/svg" fill="none" viewBox="0 0 16 16" id="Linkedin">
    <path fill="#46A358" fill-opacity=".6" d="M3.333 1.667a1.65 1.65 0 0 1-1.666 1.666A1.65 1.65 0 0 1 0 1.667 1.65 1.65 0 0 1 1.667 0a1.65 1.65 0 0 1 1.666 1.667Zm0 3H0v10.666h3.333V4.667Zm5.334 0H5.333v10.666h3.334v-5.6c0-3.133 4-3.4 4 0v5.6H16V8.6c0-5.267-5.933-5.067-7.333-2.467V4.667Z"></path>
  </symbol>

   <symbol xmlns="http://www.w3.org/2000/svg" fill="none" viewBox="0 0 19 14" id="Union">
    <path fill="#46A358" fill-opacity=".6" fill-rule="evenodd" d="M15.165 4.43h.003-.003Zm-10.84-.073c2.593-.161 7.423-.161 10.017 0v.007c.063.633.088 1.477.088 2.655 0 1.163-.025 2.008-.086 2.646-2.648.105-7.373.105-10.021 0-.062-.632-.087-1.474-.087-2.646 0-1.178.025-2.022.088-2.655v-.007ZM15.241 9.61l-.005.001h.005ZM3.498 9.608H3.5h-.003ZM0 7.019c0 4.822.389 6.611 3.422 6.844 2.8.156 9.022.156 11.822 0 3.033-.155 3.422-2.022 3.422-6.844 0-4.822-.389-6.61-3.422-6.844-2.8-.233-9.022-.233-11.822 0C.39.408 0 2.197 0 7.019Zm3.498-2.588L3.5 4.43h-.003Zm6.284 4.308a1.923 1.923 0 1 1 0-3.44c1.417.709 1.417 2.731 0 3.44Z" clip-rule="evenodd"></path>
  </symbol>
</svg>